<?xml version="1.0" standalone="no"?>
<!DOCTYPE svg PUBLIC "-//W3C//DTD SVG 20010904//EN"
 "http://www.w3.org/TR/2001/REC-SVG-20010904/DTD/svg10.dtd">
<svg version="1.0" xmlns="http://www.w3.org/2000/svg"
 width="400.000000pt" height="400.000000pt" viewBox="0 0 400.000000 400.000000"
 preserveAspectRatio="xMidYMid meet">
<metadata>
Created by potrace 1.11, written by Peter Selinger 2001-2013
</metadata>
<g transform="translate(0.000000,400.000000) scale(0.100000,-0.100000)"
fill="#000000" stroke="none">
<path d="M0 2000 l0 -2000 2000 0 2000 0 0 2000 0 2000 -2000 0 -2000 0 0
-2000z m1471 1595 c144 -47 328 -168 481 -313 l47 -45 61 56 c230 213 453 328
638 328 72 0 93 -4 145 -29 218 -103 288 -403 197 -840 -11 -52 -20 -96 -20
-98 0 -1 44 -17 98 -34 122 -41 300 -124 382 -180 92 -62 174 -151 212 -227
29 -59 33 -77 33 -148 0 -74 -3 -88 -37 -157 -42 -83 -117 -162 -221 -231 -79
-53 -241 -128 -362 -169 -55 -18 -102 -34 -103 -35 -2 -1 4 -35 13 -75 91
-399 39 -715 -139 -837 -187 -129 -460 -49 -793 233 l-103 87 -102 -87 c-334
-282 -607 -362 -794 -233 -178 122 -230 438 -139 837 9 40 15 74 13 75 -1 1
-48 17 -103 35 -298 100 -504 242 -583 400 -34 69 -37 83 -37 157 0 71 4 89
33 148 38 76 120 165 212 227 82 56 260 139 383 180 90 29 98 34 93 54 -51
183 -67 508 -32 635 73 264 269 370 527 286z"/>
<path d="M1275 3475 c-5 -2 -22 -6 -37 -9 -38 -8 -95 -61 -119 -109 -48 -94
-61 -269 -34 -452 20 -135 38 -215 46 -215 4 0 49 9 100 19 52 11 156 27 231
37 l136 18 60 80 c33 45 100 128 148 185 l88 105 -60 54 c-130 120 -288 224
-396 261 -54 19 -144 33 -163 26z"/>
<path d="M2635 3470 c-135 -29 -306 -131 -469 -282 l-60 -54 88 -105 c48 -57
115 -140 148 -185 l60 -80 136 -18 c75 -10 179 -26 231 -37 51 -10 96 -19 100
-19 4 0 12 26 19 58 78 379 43 633 -98 707 -35 18 -107 25 -155 15z"/>
<path d="M1950 2968 c-25 -29 -69 -82 -97 -118 l-53 -65 100 -3 c55 -1 145 -1
200 0 l100 3 -53 65 c-70 89 -141 170 -147 170 -3 0 -25 -23 -50 -52z"/>
<path d="M1732 2623 l-53 -4 -56 -87 c-73 -112 -136 -221 -208 -356 l-58 -109
43 -86 c98 -200 264 -468 295 -478 26 -8 584 -8 610 0 31 10 197 278 296 478
l42 87 -83 153 c-45 85 -117 208 -159 274 l-77 120 -59 6 c-63 7 -442 8 -533
2z m380 -269 c110 -36 188 -146 196 -274 5 -98 -20 -168 -83 -233 -70 -70
-123 -92 -225 -92 -102 0 -155 22 -225 92 -63 65 -88 135 -83 233 13 217 207
345 420 274z"/>
<path d="M1440 2595 c-8 -2 -72 -14 -142 -26 -71 -12 -128 -25 -128 -29 0 -23
100 -290 109 -290 3 0 21 28 40 63 18 34 62 110 97 168 35 59 64 110 64 113 0
6 -13 6 -40 1z"/>
<path d="M2520 2594 c0 -3 29 -54 64 -113 35 -58 79 -134 97 -168 19 -35 37
-63 40 -63 11 0 116 287 108 294 -4 3 -174 35 -271 51 -21 3 -38 3 -38 -1z"/>
<path d="M905 2469 c-378 -133 -561 -314 -487 -482 55 -125 234 -245 501 -337
51 -17 96 -28 100 -23 4 4 27 62 50 128 24 66 61 162 83 213 l40 92 -60 148
c-33 81 -70 179 -82 217 -12 39 -25 73 -29 77 -3 3 -55 -11 -116 -33z"/>
<path d="M2977 2502 c-3 -4 -14 -38 -27 -77 -12 -38 -49 -136 -82 -217 l-60
-148 40 -92 c22 -51 59 -147 83 -213 23 -66 46 -124 50 -128 4 -5 49 6 100 23
267 92 446 212 501 337 60 136 -48 283 -297 403 -110 54 -302 123 -308 112z"/>
<path d="M1222 1741 c-29 -77 -52 -144 -52 -149 0 -6 7 -12 15 -16 26 -10 285
-50 290 -45 2 3 -30 64 -73 135 -43 72 -86 149 -96 172 -11 23 -22 42 -26 42
-3 0 -29 -63 -58 -139z"/>
<path d="M2694 1838 c-10 -23 -53 -100 -96 -172 -43 -71 -75 -132 -73 -135 5
-5 264 35 290 45 8 4 15 10 15 16 0 17 -104 288 -110 288 -4 0 -15 -19 -26
-42z"/>
<path d="M1125 1430 c-2 -3 -14 -57 -27 -120 -32 -163 -33 -407 -1 -494 12
-32 34 -74 49 -93 95 -125 308 -85 559 106 67 51 179 149 183 160 1 5 -32 48
-74 97 -42 49 -108 131 -147 182 -39 52 -79 94 -91 97 -12 2 -66 9 -122 15
-55 7 -151 22 -213 34 -62 12 -114 19 -116 16z"/>
<path d="M2780 1418 c-47 -10 -141 -25 -210 -34 -69 -8 -134 -17 -146 -20 -12
-2 -51 -43 -91 -96 -39 -51 -105 -133 -147 -182 -42 -49 -75 -92 -74 -97 4
-11 116 -109 183 -160 251 -191 464 -231 559 -106 15 19 37 61 49 93 32 87 31
330 -2 497 -13 64 -26 118 -30 120 -3 2 -44 -5 -91 -15z"/>
<path d="M1800 1342 c1 -16 186 -227 200 -227 14 0 199 211 200 227 0 4 -90 7
-200 7 -110 0 -200 -3 -200 -7z"/>
</g>
</svg>
